<svg xmlns="http://www.w3.org/2000/svg" viewBox="0 0 1200 600" role="img" aria-labelledby="map-title map-desc">
  <title id="map-title">NovaMind global innovation network</title>
  <desc id="map-desc">A complete dotted world map with connected innovation hubs across every inhabited continent.</desc>

  <defs>
    <pattern id="dot-grid" width="12" height="12" patternUnits="userSpaceOnUse">
      <circle cx="3" cy="3" r="2.15" fill="#6f7cff" opacity=".52"/>
    </pattern>

    <linearGradient id="land-wash" x1="80" y1="80" x2="1090" y2="500" gradientUnits="userSpaceOnUse">
      <stop offset="0" stop-color="#6558f5" stop-opacity=".15"/>
      <stop offset=".52" stop-color="#4c8dff" stop-opacity=".12"/>
      <stop offset="1" stop-color="#08b9c7" stop-opacity=".16"/>
    </linearGradient>

    <linearGradient id="route-gradient" x1="110" y1="220" x2="1080" y2="430" gradientUnits="userSpaceOnUse">
      <stop offset="0" stop-color="#6558f5"/>
      <stop offset=".52" stop-color="#4c8dff"/>
      <stop offset="1" stop-color="#08b9c7"/>
    </linearGradient>

    <radialGradient id="hub-glow">
      <stop offset="0" stop-color="#4c8dff" stop-opacity=".42"/>
      <stop offset=".45" stop-color="#6558f5" stop-opacity=".16"/>
      <stop offset="1" stop-color="#6558f5" stop-opacity="0"/>
    </radialGradient>

    <filter id="soft-glow" x="-300%" y="-300%" width="700%" height="700%">
      <feGaussianBlur stdDeviation="5"/>
    </filter>

    <g id="continents">
      <!-- North America -->
      <path d="M74 145
        C88 111 120 89 158 87
        L181 69 218 78 240 67 275 79
        L294 98 326 104 349 125 341 146
        L313 154 300 174 276 177 264 199
        L240 205 226 224 213 251 193 259
        L176 243 168 220 147 211 131 188
        L104 181 90 164 Z"/>
      <!-- Alaska and Aleutians -->
      <path d="M57 121 L77 104 105 106 116 121 95 133 72 132 Z"/>
      <path d="M49 136 L39 143 55 147 67 141 Z"/>
      <!-- Central America -->
      <path d="M194 255 L213 251 225 264 236 274 251 282
        L247 292 231 290 220 279 204 275 Z"/>
      <!-- South America -->
      <path d="M251 286
        C275 281 307 290 326 311
        L337 340 329 369 314 389
        L306 420 291 445 283 475
        L266 501 250 475 245 443
        L228 416 222 385 207 355
        L211 327 229 305 Z"/>
      <!-- Greenland -->
      <path d="M300 67 L330 49 365 56 382 79 367 111
        L340 127 316 112 301 89 Z"/>

      <!-- Europe -->
      <path d="M505 144
        L523 127 546 130 557 115 573 120
        L581 137 602 137 615 149 608 164
        L586 166 574 181 552 180 541 166
        L519 165 Z"/>
      <!-- United Kingdom and Iceland -->
      <path d="M497 125 L507 115 516 122 511 137 501 139 Z"/>
      <path d="M480 99 L495 92 507 100 499 109 484 108 Z"/>
      <!-- Africa -->
      <path d="M523 190
        C550 174 591 177 617 193
        L641 221 638 255 624 276
        L616 310 594 342 580 374
        L555 397 538 371 528 337
        L506 310 495 278 479 251
        L486 219 503 204 Z"/>
      <!-- Madagascar -->
      <path d="M648 323 L660 338 654 372 642 387 635 365 639 341 Z"/>

      <!-- Asia -->
      <path d="M610 144
        L628 124 660 119 684 101 721 103
        L747 91 778 101 811 96 837 111
        L873 115 894 133 925 137 947 158
        L980 172 1000 198 993 219 966 224
        L946 240 920 242 903 262 878 264
        L860 284 837 279 820 258 797 252
        L780 231 755 229 738 211 711 214
        L692 197 665 198 650 181 625 174 Z"/>
      <!-- Arabian Peninsula -->
      <path d="M641 210 L673 214 691 237 680 262 655 254 638 231 Z"/>
      <!-- India -->
      <path d="M727 224 L754 230 768 251 759 281 743 306
        L728 285 715 258 Z"/>
      <!-- Southeast Asia mainland -->
      <path d="M791 263 L815 270 827 289 819 307 832 323
        L820 338 803 320 806 296 787 283 Z"/>
      <!-- Japan -->
      <path d="M939 221 L948 230 943 243 934 247 936 233 Z"/>
      <path d="M949 249 L956 257 951 270 944 264 Z"/>
      <!-- Philippines -->
      <path d="M873 292 L882 299 878 313 869 308 Z"/>
      <path d="M882 318 L889 325 884 337 876 330 Z"/>
      <!-- Indonesia -->
      <path d="M807 350 L829 347 842 354 828 362 810 360 Z"/>
      <path d="M848 360 L873 358 888 365 868 371 850 369 Z"/>
      <path d="M896 370 L919 368 933 375 914 381 898 379 Z"/>
      <!-- Papua New Guinea -->
      <path d="M944 352 L970 350 986 362 975 376 950 371 Z"/>

      <!-- Australia -->
      <path d="M895 394
        C920 374 960 370 993 382
        L1020 400 1034 430 1024 461
        L1000 481 966 486 938 474
        L911 452 892 424 Z"/>
      <!-- Tasmania -->
      <path d="M978 500 L994 499 1000 512 987 520 976 511 Z"/>
      <!-- New Zealand -->
      <path d="M1081 436 L1090 449 1085 466 1076 457 Z"/>
      <path d="M1069 473 L1077 482 1069 496 1060 488 Z"/>
    </g>

    <clipPath id="land-clip">
      <use href="#continents"/>
    </clipPath>
  </defs>

  <!-- quiet latitude / longitude guides -->
  <g fill="none" stroke="#8090d9" stroke-width="1" opacity=".09">
    <path d="M55 195 C330 155 855 155 1145 195"/>
    <path d="M45 305 C330 282 870 282 1155 305"/>
    <path d="M60 415 C355 455 865 455 1140 415"/>
    <path d="M410 54 C365 170 365 430 420 548"/>
    <path d="M790 50 C835 175 835 426 780 550"/>
  </g>

  <!-- complete continent silhouettes -->
  <use href="#continents" fill="url(#land-wash)" stroke="#7380e9" stroke-width="1.2" stroke-opacity=".2"/>
  <rect x="34" y="42" width="1128" height="490" fill="url(#dot-grid)" clip-path="url(#land-clip)"/>

  <!-- global routes -->
  <g fill="none" stroke="url(#route-gradient)" stroke-width="1.8" stroke-linecap="round"
     stroke-dasharray="5 7" opacity=".48">
    <path d="M154 173 Q280 112 535 151"/>
    <path d="M236 225 Q352 171 535 151"/>
    <path d="M236 225 Q263 292 276 363"/>
    <path d="M535 151 Q557 181 556 234"/>
    <path d="M556 234 Q625 172 694 171"/>
    <path d="M694 171 Q816 114 922 208"/>
    <path d="M694 171 Q754 218 789 282"/>
    <path d="M789 282 Q868 245 922 208"/>
    <path d="M789 282 Q865 350 953 420"/>
    <path d="M953 420 Q1008 404 1081 455"/>
    <path d="M556 234 Q648 307 743 264"/>
  </g>

  <!-- innovation hubs -->
  <g>
    <g transform="translate(154 173)">
      <circle r="19" fill="url(#hub-glow)" filter="url(#soft-glow)"/>
      <circle r="7" fill="#fff" stroke="#6558f5" stroke-width="2"/>
      <circle r="2.6" fill="#6558f5"/>
    </g>
    <g transform="translate(236 225)">
      <circle r="19" fill="url(#hub-glow)" filter="url(#soft-glow)"/>
      <circle r="7" fill="#fff" stroke="#4c8dff" stroke-width="2"/>
      <circle r="2.6" fill="#4c8dff"/>
    </g>
    <g transform="translate(276 363)">
      <circle r="19" fill="url(#hub-glow)" filter="url(#soft-glow)"/>
      <circle r="7" fill="#fff" stroke="#6558f5" stroke-width="2"/>
      <circle r="2.6" fill="#6558f5"/>
    </g>
    <g transform="translate(535 151)">
      <circle r="19" fill="url(#hub-glow)" filter="url(#soft-glow)"/>
      <circle r="7" fill="#fff" stroke="#6558f5" stroke-width="2"/>
      <circle r="2.6" fill="#6558f5"/>
    </g>
    <g transform="translate(556 234)">
      <circle r="22" fill="url(#hub-glow)" filter="url(#soft-glow)"/>
      <circle r="8" fill="#fff" stroke="#08b9c7" stroke-width="2"/>
      <circle r="3" fill="#08b9c7"/>
    </g>
    <g transform="translate(694 171)">
      <circle r="19" fill="url(#hub-glow)" filter="url(#soft-glow)"/>
      <circle r="7" fill="#fff" stroke="#4c8dff" stroke-width="2"/>
      <circle r="2.6" fill="#4c8dff"/>
    </g>
    <g transform="translate(743 264)">
      <circle r="19" fill="url(#hub-glow)" filter="url(#soft-glow)"/>
      <circle r="7" fill="#fff" stroke="#6558f5" stroke-width="2"/>
      <circle r="2.6" fill="#6558f5"/>
    </g>
    <g transform="translate(789 282)">
      <circle r="22" fill="url(#hub-glow)" filter="url(#soft-glow)"/>
      <circle r="8" fill="#fff" stroke="#08b9c7" stroke-width="2"/>
      <circle r="3" fill="#08b9c7"/>
    </g>
    <g transform="translate(922 208)">
      <circle r="19" fill="url(#hub-glow)" filter="url(#soft-glow)"/>
      <circle r="7" fill="#fff" stroke="#4c8dff" stroke-width="2"/>
      <circle r="2.6" fill="#4c8dff"/>
    </g>
    <g transform="translate(953 420)">
      <circle r="22" fill="url(#hub-glow)" filter="url(#soft-glow)"/>
      <circle r="8" fill="#fff" stroke="#08b9c7" stroke-width="2"/>
      <circle r="3" fill="#08b9c7"/>
    </g>
    <g transform="translate(1081 455)">
      <circle r="18" fill="url(#hub-glow)" filter="url(#soft-glow)"/>
      <circle r="6.5" fill="#fff" stroke="#6558f5" stroke-width="2"/>
      <circle r="2.5" fill="#6558f5"/>
    </g>
  </g>
</svg>
